<?xml version="1.0" encoding="UTF-8" standalone="no"?>
<svg
   width="67.647545"
   height="59.182381"
   viewBox="0 0 67.647545 59.182381"
   fill="none"
   version="1.1"
   id="svg908"
   sodipodi:docname="aw-logo.svg"
   inkscape:version="1.1.2 (0a00cf5339, 2022-02-04)"
   xmlns:inkscape="http://www.inkscape.org/namespaces/inkscape"
   xmlns:sodipodi="http://sodipodi.sourceforge.net/DTD/sodipodi-0.dtd"
   xmlns="http://www.w3.org/2000/svg"
   xmlns:svg="http://www.w3.org/2000/svg">
  <defs
     id="defs912" />
  <sodipodi:namedview
     id="namedview910"
     pagecolor="#ffffff"
     bordercolor="#666666"
     borderopacity="1.0"
     inkscape:pageshadow="2"
     inkscape:pageopacity="0.0"
     inkscape:pagecheckerboard="0"
     showgrid="false"
     fit-margin-top="0"
     fit-margin-left="0"
     fit-margin-right="0"
     fit-margin-bottom="0"
     inkscape:zoom="3.9243697"
     inkscape:cx="31.342612"
     inkscape:cy="29.686296"
     inkscape:window-width="1835"
     inkscape:window-height="1016"
     inkscape:window-x="0"
     inkscape:window-y="0"
     inkscape:window-maximized="1"
     inkscape:current-layer="svg908" />
  <path
     fill-rule="evenodd"
     clip-rule="evenodd"
     d="m 23.9458,19.124982 9.9375,-17.29279 9.9374,17.29279 h 1.8961 L 35.2592,0.926962 C 35.1701,0.772247 34.6846,0 33.8587,0 33.4852,0 32.9477,0.160787 32.5074,0.926962 l -10.4576,18.19802 z"
     fill="#50AD34"
     id="path885"
     style="fill:#ffffff" />
  <path
     fill-rule="evenodd"
     clip-rule="evenodd"
     d="m 33.645,39.800382 c 0.2003,0.2373 0.409,0.3809 0.6065,0.4618 -0.2848,0.0873 -0.537,0.0966 -0.6219,0.0966 h -0.8187 l -9.7644,16.9911 -9.7642,-16.9911 h -0.8188 c -0.8701,0 -1.2776,-0.3794 -1.467,-0.7023 0.0385,0.0869 0.0735,0.1521 0.0927,0.1853 l 10.5814,18.4136 c 0.4403,0.766 0.978,0.927 1.3513,0.927 0.8259,0 1.3116,-0.7726 1.4005,-0.927 l 10.5816,-18.4136 c 0.008,-0.0138 0.0145,-0.0273 0.0223,-0.0414 z"
     fill="#1F4471"
     id="path887"
     style="fill:#ffffff" />
  <path
     fill-rule="evenodd"
     clip-rule="evenodd"
     d="m 55.2021,39.800382 c 0.2004,0.2373 0.4092,0.3809 0.6065,0.4618 -0.2847,0.0873 -0.537,0.0965 -0.6219,0.0965 H 54.368 l -9.7643,16.9912 -9.7642,-16.9912 h -0.8189 c -0.8701,0 -1.2776,-0.3793 -1.467,-0.7023 0.0385,0.087 0.0735,0.1522 0.0928,0.1854 l 10.5814,18.4136 c 0.4403,0.766 0.9779,0.927 1.3513,0.927 0.8258,0 1.3115,-0.7726 1.4005,-0.927 l 10.5815,-18.4136 c 0.0081,-0.0138 0.1836,-0.3371 0.1913,-0.3509 z"
     fill="#E32215"
     id="path889"
     style="fill:#ffffff" />
  <path
     fill-rule="evenodd"
     clip-rule="evenodd"
     d="m 24.3161,19.377482 c -0.4127,-0.7198 -1.3206,-0.7562 -1.4985,-0.7562 H 1.6515 c -0.88014897,0 -1.28714397,0.3878 -1.47372497,0.7134 -0.41269,0.7199 0.010384,1.5288 0.099488,1.6836 L 10.8586,39.431682 c 0.3988,0.6937 1.0224,0.318 1.3863,0.349 l -0.1455,-1.4895 -10.35461,-18.0184 H 22.1235 v -0.0098 h 2.3479 c 0.0576,-0.3836 -0.0372,-0.6793 -0.1553,-0.8855 z"
     fill="#22B0E6"
     id="path891"
     style="fill:#ffffff" />
  <path
     fill-rule="evenodd"
     clip-rule="evenodd"
     d="m 43.3314,19.380182 c 0.4127,-0.7199 1.3206,-0.7563 1.4985,-0.7563 h 21.1663 c 0.88,0 1.2869,0.3878 1.4737,0.7134 0.4125,0.7199 -0.0106,1.5289 -0.0995,1.6836 l -10.5815,18.4134 c -0.3986,0.6937 -0.4492,-0.8838 -0.8132,-0.8528 l -0.4276,-0.2877 10.3546,-18.0184 H 45.524 v -0.0097 h -2.3479 c -0.0576,-0.3836 0.0372,-0.6794 0.1553,-0.8855 z"
     fill="#F6A503"
     id="path893"
     style="fill:#ffffff" />
  <mask
     id="mask0"
     mask-type="alpha"
     maskUnits="userSpaceOnUse"
     x="78"
     y="0"
     width="160"
     height="60">
    <path
       fill-rule="evenodd"
       clip-rule="evenodd"
       d="m 137.522,1.63058 c -1.259,0.53158 -2.342,1.2804 -3.246,2.24646 -0.904,0.96624 -1.608,2.13203 -2.111,3.49686 -0.503,1.36533 -0.754,2.881 -0.754,4.5475 0,1.6772 0.251,3.1982 0.754,4.5629 0.503,1.365 1.207,2.5306 2.111,3.497 0.904,0.9661 1.987,1.7125 3.246,2.2391 1.26,0.5265 2.647,0.7899 4.161,0.7899 1.535,0 2.932,-0.2634 4.192,-0.7899 1.26,-0.5266 2.342,-1.273 3.246,-2.2391 0.905,-0.9664 1.605,-2.132 2.104,-3.497 0.497,-1.3647 0.746,-2.8857 0.746,-4.5629 0,-1.6665 -0.249,-3.18217 -0.746,-4.5475 -0.499,-1.36483 -1.199,-2.53315 -2.104,-3.50444 -0.904,-0.97113 -1.986,-1.72028 -3.246,-2.2468 -1.26,-0.52652 -2.657,-0.789774 -4.192,-0.789774 -1.514,0 -2.901,0.265784 -4.161,0.797694 z m 0.648,19.35522 c -1.062,-0.4395 -1.976,-1.0788 -2.743,-1.9173 -0.767,-0.8381 -1.362,-1.8583 -1.783,-3.0598 -0.422,-1.2012 -0.633,-2.5635 -0.633,-4.0873 0,-1.5129 0.211,-2.87306 0.633,-4.07947 0.421,-1.20657 1.016,-2.22893 1.783,-3.06741 0.767,-0.83849 1.681,-1.48012 2.743,-1.92489 1.062,-0.44478 2.233,-0.66708 3.513,-0.66708 1.301,0 2.484,0.2223 3.551,0.66708 1.068,0.44477 1.979,1.0864 2.736,1.92489 0.757,0.83848 1.344,1.86084 1.761,3.06741 0.416,1.20641 0.625,2.56657 0.625,4.07947 0,1.5238 -0.209,2.8861 -0.625,4.0873 -0.417,1.2015 -1.004,2.2217 -1.761,3.0598 -0.757,0.8385 -1.668,1.4778 -2.736,1.9173 -1.067,0.4397 -2.25,0.6597 -3.551,0.6597 -1.28,0 -2.451,-0.22 -3.513,-0.6597 z M 116.88,1.62266 c -1.336,0.52652 -2.472,1.27315 -3.406,2.23921 -0.935,0.96641 -1.657,2.13186 -2.164,3.49686 -0.509,1.365 -0.762,2.88587 -0.762,4.56267 0,1.6772 0.253,3.2002 0.762,4.5706 0.507,1.3703 1.222,2.5382 2.141,3.5046 0.92,0.9661 2.022,1.7126 3.307,2.2391 1.286,0.5265 2.706,0.7899 4.26,0.7899 0.905,0 1.738,-0.0537 2.5,-0.1611 0.762,-0.1073 1.473,-0.2607 2.134,-0.4599 0.66,-0.1996 1.28,-0.4475 1.859,-0.744 0.579,-0.2964 1.138,-0.634 1.677,-1.0124 v -7.7144 h -5.96 v 0.8589 c 0,0.092 0.038,0.1738 0.114,0.2456 0.077,0.0714 0.171,0.1072 0.283,0.1072 h 4.145 v 5.8436 c -0.478,0.2759 -0.953,0.5238 -1.425,0.7436 -0.473,0.2197 -0.97,0.4063 -1.494,0.5597 -0.523,0.1535 -1.089,0.2685 -1.699,0.3453 -0.61,0.0767 -1.285,0.115 -2.027,0.115 -1.331,0 -2.548,-0.2252 -3.65,-0.6749 -1.102,-0.45 -2.048,-1.0965 -2.835,-1.94 -0.788,-0.8436 -1.4,-1.8738 -1.837,-3.0907 -0.437,-1.2169 -0.655,-2.5916 -0.655,-4.1257 0,-1.503 0.216,-2.85756 0.647,-4.0643 0.432,-1.20641 1.047,-2.22877 1.845,-3.06725 0.797,-0.83865 1.76,-1.48298 2.888,-1.93247 1.128,-0.45017 2.393,-0.67483 3.795,-0.67483 1.057,0 1.956,0.09708 2.698,0.2914 0.742,0.19399 1.359,0.4141 1.851,0.6595 0.493,0.24522 0.885,0.4805 1.174,0.7055 0.29,0.22483 0.511,0.36809 0.663,0.42927 0.082,0.04096 0.168,0.06135 0.259,0.06135 0.163,0 0.29,-0.07652 0.381,-0.22989 l 0.412,-0.67483 C 128.283,3.00569 127.785,2.63491 127.267,2.313 126.749,1.99075 126.19,1.71974 125.591,1.49996 c -0.6,-0.21977 -1.248,-0.38595 -1.944,-0.49853 -0.696,-0.112421 -1.455,-0.168544 -2.278,-0.168544 -1.656,0 -3.152,0.263254 -4.489,0.789774 z M 236.793,1.07845 c -0.142,0 -0.254,0.015 -0.335,0.0455 -0.082,0.03101 -0.163,0.11242 -0.244,0.24556 L 227.74,16.4459 c -0.081,0.1434 -0.155,0.2939 -0.222,0.4525 -0.065,0.1586 -0.129,0.3194 -0.19,0.4832 -0.112,-0.3275 -0.244,-0.6342 -0.396,-0.9202 L 218.229,1.36951 c -0.081,-0.13314 -0.165,-0.21455 -0.251,-0.24556 -0.087,-0.0305 -0.201,-0.0455 -0.343,-0.0455 h -1.067 V 22.7801 h 1.356 V 4.28356 c 0,-0.2759 -0.015,-0.56242 -0.046,-0.85871 l 8.719,15.18375 c 0.152,0.2656 0.355,0.3987 0.61,0.3987 h 0.243 c 0.264,0 0.467,-0.1331 0.61,-0.3987 l 8.489,-15.16858 c -0.03,0.29646 -0.046,0.57792 -0.046,0.84354 V 22.7801 h 1.372 V 1.07845 Z m -26.259,0 V 11.2004 H 197.03 V 1.07845 h -1.569 V 22.7801 h 1.569 V 12.3819 h 13.504 v 10.3982 h 1.57 V 1.07845 Z m -33.62,0 v 1.33399 h 7.621 V 22.7801 h 1.554 V 2.41244 h 7.575 V 1.07845 Z m -3.945,21.70165 h 1.57 V 1.07845 h -1.57 z M 155.566,1.07845 V 22.7801 h 1.554 v -9.8156 h 2.82 c 0.417,0 0.724,0.046 0.922,0.1379 0.199,0.0922 0.384,0.2504 0.556,0.4754 l 6.905,8.8035 c 0.112,0.1433 0.226,0.2456 0.343,0.3067 0.117,0.0617 0.257,0.0921 0.419,0.0921 h 1.356 l -7.422,-9.3861 c -0.193,-0.2556 -0.412,-0.4602 -0.656,-0.6134 0.945,-0.1024 1.794,-0.3195 2.546,-0.652 0.752,-0.3322 1.394,-0.7568 1.928,-1.273 0.533,-0.5163 0.942,-1.1171 1.227,-1.80187 0.284,-0.68528 0.426,-1.44219 0.426,-2.2704 0,-1.87078 -0.614,-3.28938 -1.844,-4.25595 -1.229,-0.96607 -3.089,-1.44893 -5.578,-1.44893 z m 1.554,1.24213 h 3.948 c 1.921,0 3.383,0.37315 4.389,1.11944 1.006,0.74646 1.51,1.89186 1.51,3.43568 0,0.75657 -0.138,1.43646 -0.412,2.03983 -0.274,0.6032 -0.673,1.11977 -1.197,1.54917 -0.523,0.4293 -1.163,0.759 -1.92,0.9892 -0.757,0.2299 -1.613,0.3452 -2.568,0.3452 h -3.75 z M 99.4236,1.07845 V 22.7801 H 111.205 V 21.4459 H 100.978 V 1.07845 Z m -11.8554,0 -8.8248,21.70165 h 1.1887 c 0.1425,0 0.2644,-0.041 0.3658,-0.1227 0.1016,-0.0816 0.1728,-0.179 0.2135,-0.2914 l 2.5299,-6.3034 h 10.5929 l 2.5455,6.3034 c 0.0506,0.1228 0.1218,0.2224 0.2132,0.2991 0.0914,0.0767 0.2082,0.115 0.3504,0.115 h 1.2042 L 89.1226,1.07845 Z m 0.3505,2.86803 c 0.0712,-0.18421 0.1422,-0.38646 0.2132,-0.60607 0.0714,-0.21977 0.1422,-0.45236 0.2136,-0.69792 0.071,0.24556 0.1422,0.47815 0.2134,0.69792 0.071,0.21961 0.1423,0.41663 0.2134,0.59057 L 93.177,14.897 H 83.514 Z M 143.84,38.4468 c -1.295,0.5368 -2.408,1.2936 -3.338,2.2699 -0.93,0.9765 -1.651,2.1447 -2.164,3.5048 -0.513,1.3596 -0.77,2.8626 -0.77,4.5087 0,1.6768 0.249,3.2004 0.747,4.5707 0.498,1.37 1.191,2.5383 2.081,3.5044 0.888,0.9666 1.955,1.7129 3.2,2.2394 0.947,0.4004 1.965,0.6485 3.055,0.7448 h 2.218 c 0.455,-0.0369 0.886,-0.0959 1.296,-0.1773 0.747,-0.1484 1.433,-0.358 2.058,-0.629 0.625,-0.2709 1.201,-0.5982 1.729,-0.9816 0.529,-0.3834 1.016,-0.8154 1.464,-1.2957 l -0.61,-0.6597 c -0.071,-0.0715 -0.158,-0.1072 -0.259,-0.1072 -0.061,0 -0.114,0.0128 -0.16,0.0381 -0.046,0.0258 -0.094,0.059 -0.145,0.0998 -0.427,0.3986 -0.859,0.7463 -1.296,1.0431 -0.436,0.2966 -0.909,0.5469 -1.417,0.7517 -0.508,0.2042 -1.064,0.3573 -1.669,0.4597 -0.604,0.1023 -1.293,0.1536 -2.065,0.1536 -1.23,0 -2.37,-0.2227 -3.421,-0.6674 -1.052,-0.445 -1.964,-1.0836 -2.736,-1.9172 -0.773,-0.8331 -1.377,-1.8529 -1.814,-3.0596 -0.437,-1.2068 -0.656,-2.577 -0.656,-4.1106 0,-1.4925 0.221,-2.8397 0.663,-4.0409 0.442,-1.2015 1.06,-2.2238 1.852,-3.0672 0.793,-0.844 1.738,-1.4933 2.835,-1.9481 1.098,-0.4553 2.301,-0.6825 3.612,-0.6825 0.712,0 1.346,0.0536 1.906,0.161 0.558,0.1074 1.051,0.2403 1.478,0.3986 0.427,0.1582 0.795,0.3322 1.105,0.5215 0.31,0.1892 0.574,0.3633 0.793,0.5212 0.218,0.1588 0.398,0.2918 0.54,0.3991 0.143,0.1074 0.259,0.161 0.351,0.161 0.173,0 0.3,-0.0612 0.381,-0.184 l 0.472,-0.6902 c -0.477,-0.4293 -0.964,-0.808 -1.463,-1.1351 -0.498,-0.327 -1.028,-0.6007 -1.592,-0.8203 -0.564,-0.2198 -1.171,-0.3883 -1.821,-0.506 -0.651,-0.1178 -1.367,-0.1763 -2.15,-0.1763 -1.565,0 -2.995,0.2682 -4.29,0.8048 z m 29.619,-0.5597 V 48.0096 H 159.956 V 37.8871 h -1.57 v 21.7021 h 1.57 V 49.1905 h 13.503 v 10.3987 h 1.57 V 37.8871 Z m -51.298,0 v 1.3341 h 7.621 v 20.368 h 1.555 v -20.368 h 7.574 v -1.3341 z m -7.435,0 -8.825,21.7021 h 1.189 c 0.142,0 0.264,-0.0408 0.366,-0.1228 0.101,-0.0818 0.172,-0.1787 0.213,-0.2913 l 2.53,-6.3039 h 10.593 l 2.545,6.3039 c 0.051,0.1229 0.122,0.2222 0.214,0.2992 0.091,0.0763 0.208,0.1149 0.35,0.1149 h 1.204 l -8.824,-21.7021 z m 0.35,2.8679 c 0.072,-0.1841 0.143,-0.3858 0.214,-0.6054 0.071,-0.22 0.142,-0.4526 0.213,-0.6979 0.071,0.2453 0.142,0.4779 0.214,0.6979 0.071,0.2196 0.142,0.4164 0.213,0.5902 l 4.405,10.966 h -9.663 z m -7.938,-2.8679 c -0.142,0 -0.267,0.0409 -0.373,0.1228 -0.107,0.0816 -0.175,0.1787 -0.206,0.2913 l -5.441,17.8372 c -0.061,0.2044 -0.112,0.4217 -0.152,0.6519 -0.041,0.2295 -0.087,0.4675 -0.138,0.7129 -0.051,-0.2558 -0.104,-0.4957 -0.16,-0.7208 -0.056,-0.2252 -0.119,-0.4396 -0.19,-0.644 L 94.3811,38.3012 c -0.051,-0.1224 -0.1218,-0.2225 -0.2134,-0.2988 -0.0913,-0.0767 -0.2082,-0.1153 -0.3507,-0.1153 h -0.4266 c -0.1422,0 -0.2645,0.0409 -0.3658,0.1228 -0.1017,0.0816 -0.1729,0.1787 -0.2134,0.2913 l -6.0965,17.8372 c -0.0712,0.2044 -0.132,0.424 -0.1828,0.6595 -0.0509,0.2349 -0.1018,0.4805 -0.1526,0.736 -0.0507,-0.2555 -0.0991,-0.5011 -0.1447,-0.736 -0.046,-0.2355 -0.0993,-0.4551 -0.1601,-0.6595 L 80.6333,38.3012 c -0.0814,-0.2761 -0.2691,-0.4141 -0.5637,-0.4141 h -1.2957 l 6.7976,21.7021 h 1.3872 L 93.3445,40.755 c 0.0812,-0.2453 0.1526,-0.506 0.2135,-0.7817 0.061,0.2757 0.132,0.5364 0.2134,0.7817 l 6.3706,18.8342 h 1.403 l 6.782,-21.7021 z"
       fill="#ffffff"
       id="path895" />
  </mask>
  <g
     mask="url(#mask0)"
     id="g900"
     style="fill:#ffffff"
     transform="translate(2.6298909e-8,-0.168518)" />
  <path
     fill-rule="evenodd"
     clip-rule="evenodd"
     d="m 33.3956,39.431682 -0.4166,-0.7245 H 12.5646 l 10.2087,-17.7646 c -0.1323,-0.2585 -0.4257,-0.9679 -0.0588,-1.608 0.1302,-0.227 0.3683,-0.4839 0.7988,-0.6189 -0.1456,-0.0575 -0.3062,-0.0947 -0.4836,-0.0947 -0.3733,0 -0.9109,0.1611 -1.3512,0.9271 l -10.5814,18.4131 c -0.0891,0.1551 -0.5122,0.9642 -0.0995,1.6842 0.1866,0.3255 0.5936,0.7133 1.4737,0.7133 h 21.1661 c 0.0849,0 0.3372,-0.0093 0.6219,-0.0964 -0.2841,-0.1163 -0.5924,-0.3582 -0.8637,-0.8306 z"
     fill="#16759C"
     id="path902"
     style="fill:#ffffff" />
  <path
     fill-rule="evenodd"
     clip-rule="evenodd"
     d="m 56.5612,37.961282 -10.5815,-18.4131 c -0.0889,-0.1549 -0.5747,-0.927 -1.4005,-0.927 -0.1364,0 -0.2948,0.0219 -0.4623,0.0867 0.3191,0.0918 0.6869,0.2802 0.91,0.6696 0.1847,0.3222 0.3128,0.8634 -0.1116,1.6178 l 10.1784,17.7119 H 34.7378 l -0.4164,0.7246 c -0.071,0.123 -0.395,0.6382 -0.9416,0.8423 0.1795,0.0526 0.3905,0.0847 0.6409,0.0847 h 21.1661 c 0.1779,0 1.0858,-0.0366 1.4985,-0.7566 0.1866,-0.3251 0.3164,-0.8739 -0.1241,-1.6409 z"
     fill="#A7120E"
     id="path904"
     style="fill:#ffffff" />
  <path
     fill-rule="evenodd"
     clip-rule="evenodd"
     d="M 44.4664,18.621182 H 23.3003 c -0.8801,0 -1.2873,0.388 -1.4737,0.7133 -0.4127,0.72 0.0104,1.5291 0.0995,1.684 l 10.5813,18.4133 c 0.4404,0.7658 0.978,0.927 1.3513,0.927 0.8259,0 1.3116,-0.7723 1.4005,-0.927 l 10.5816,-18.4133 c 0.4405,-0.7665 0.3107,-1.3154 0.1241,-1.641 -0.4127,-0.7199 -1.3207,-0.7563 -1.4985,-0.7563 z m -21.0728,1.6517 h 20.9797 l -10.4899,18.2535 z"
     fill="#1E6C25"
     id="path906"
     style="fill:#ffffff" />
</svg>
